<?xml version="1.0" standalone="no"?>
<!DOCTYPE svg PUBLIC "-//W3C//DTD SVG 20010904//EN"
 "http://www.w3.org/TR/2001/REC-SVG-20010904/DTD/svg10.dtd">
<svg version="1.0" xmlns="http://www.w3.org/2000/svg"
 width="828.000000pt" height="846.000000pt" viewBox="0 0 828.000000 846.000000"
 preserveAspectRatio="xMidYMid meet">

<g transform="translate(0.000000,846.000000) scale(0.100000,-0.100000)"
fill="#000000" stroke="none">
<path d="M3965 8239 c-286 -16 -554 -57 -790 -120 -22 -6 -56 -14 -75 -19 -91
-21 -411 -133 -515 -180 -503 -227 -871 -477 -1236 -840 -126 -125 -183 -187
-294 -321 -58 -69 -179 -236 -238 -326 -70 -108 -183 -299 -194 -330 -3 -10
-14 -29 -23 -43 -9 -14 -31 -59 -50 -100 -18 -41 -48 -108 -67 -148 -18 -39
-33 -77 -33 -82 0 -6 -4 -18 -9 -28 -54 -99 -165 -481 -210 -724 -53 -283 -65
-425 -65 -743 0 -299 12 -443 61 -715 106 -604 366 -1197 740 -1692 314 -416
690 -754 1148 -1033 117 -71 483 -255 507 -255 8 0 18 -4 23 -9 45 -41 612
-207 818 -240 332 -52 368 -55 712 -55 250 1 359 5 449 18 66 9 138 19 160 22
212 30 540 114 741 190 50 19 94 34 98 34 4 0 29 9 55 21 26 12 56 25 67 29
38 15 350 170 390 193 118 67 152 88 280 176 77 52 156 107 175 122 330 262
593 530 810 824 220 298 421 675 544 1020 30 87 59 176 76 235 7 25 17 59 21
75 31 110 86 379 99 490 51 411 51 662 1 1095 -14 122 -73 413 -101 500 -4 14
-13 45 -20 70 -108 382 -309 810 -542 1150 -155 226 -384 493 -563 655 -49 44
-98 89 -109 100 -12 11 -57 49 -101 85 -413 337 -891 590 -1395 739 -113 34
-132 39 -290 75 -175 41 -417 71 -675 86 -185 11 -176 11 -380 -1z m628 -194
c180 -22 244 -32 374 -60 207 -45 466 -121 560 -165 24 -11 47 -20 53 -20 6 0
30 -9 55 -20 25 -11 66 -30 93 -41 127 -57 322 -158 402 -208 8 -6 53 -33 99
-62 202 -126 435 -313 627 -504 183 -183 214 -217 334 -370 79 -101 280 -395
280 -409 0 -2 19 -37 43 -78 58 -99 158 -305 208 -430 131 -328 211 -642 256
-994 22 -178 25 -693 4 -859 -62 -505 -188 -920 -409 -1350 -123 -237 -229
-398 -473 -715 -80 -105 -318 -347 -433 -442 -34 -28 -81 -67 -105 -87 -89
-73 -316 -230 -411 -284 -19 -11 -57 -33 -85 -49 -119 -68 -368 -188 -500
-238 -148 -58 -317 -112 -437 -141 -21 -5 -57 -14 -80 -20 -24 -5 -65 -14 -93
-19 -27 -5 -77 -14 -110 -20 -150 -28 -265 -41 -460 -54 -173 -11 -248 -11
-425 0 -202 12 -367 28 -399 40 -8 2 -41 9 -75 14 -34 6 -82 15 -108 20 -27 6
-67 14 -90 19 -100 21 -389 109 -465 141 -36 15 -65 27 -109 43 -114 43 -403
188 -518 260 -229 143 -261 166 -411 286 -222 179 -308 261 -471 453 -204 240
-322 402 -449 613 -46 76 -205 386 -205 399 0 3 -9 25 -19 49 -64 142 -148
396 -195 587 -159 649 -140 1374 53 2006 47 156 100 306 112 318 5 6 9 16 9
23 0 16 21 64 105 238 112 230 216 402 376 615 321 428 725 783 1199 1053 45
25 273 139 325 162 84 37 102 44 155 65 332 132 771 229 1130 250 182 11 532
3 683 -15z"/>
<path d="M3845 7994 c-401 -34 -794 -132 -1160 -289 -98 -42 -336 -161 -400
-200 -22 -13 -53 -32 -70 -41 -46 -26 -201 -131 -285 -193 -427 -315 -780
-715 -1053 -1191 -59 -104 -167 -330 -211 -445 -15 -38 -31 -79 -36 -90 -14
-31 -55 -159 -88 -275 -61 -216 -77 -294 -124 -625 -17 -124 -17 -676 0 -815
61 -479 172 -858 367 -1255 65 -133 198 -366 248 -435 79 -110 95 -129 99
-124 3 2 -1 22 -8 44 -25 72 -37 182 -30 275 7 84 36 217 57 257 5 10 9 24 9
31 0 44 107 213 181 286 l50 50 -45 20 c-108 47 -115 186 -13 234 43 21 56 21
105 2 54 -22 86 -80 77 -137 l-7 -41 28 7 c16 4 68 9 116 13 61 4 88 10 88 18
0 7 -12 37 -26 67 -28 56 -32 65 -59 138 -169 453 -218 935 -140 1395 34 200
132 543 166 580 5 5 9 15 9 22 0 17 126 271 165 333 228 365 471 622 805 852
52 36 111 75 130 85 19 11 58 32 85 48 177 101 419 195 635 250 141 35 137 35
355 66 109 15 487 16 610 0 437 -54 831 -199 1185 -436 144 -96 154 -104 269
-204 423 -367 706 -827 851 -1379 21 -81 25 -102 57 -292 23 -138 23 -576 0
-721 -48 -299 -121 -553 -217 -752 -18 -37 -30 -70 -27 -74 3 -3 34 0 69 7 60
12 107 8 218 -21 11 -3 16 8 20 47 7 63 30 100 78 120 79 33 160 -15 169 -100
9 -77 -33 -136 -97 -136 -36 0 -30 -20 27 -88 86 -103 138 -213 180 -380 22
-92 24 -118 20 -230 -3 -70 -8 -140 -12 -157 l-7 -30 29 32 c24 28 112 167
175 278 20 35 148 293 171 346 98 219 213 599 248 822 5 31 14 85 19 120 21
129 40 388 40 547 0 142 -20 451 -35 530 -2 14 -9 57 -15 95 -32 193 -108 500
-151 600 -4 11 -15 42 -24 69 -26 82 -95 243 -158 371 -208 422 -482 792 -822
1106 -69 63 -161 142 -231 199 -75 60 -238 174 -345 240 -122 76 -400 225
-464 248 -16 6 -57 23 -90 37 -185 80 -469 166 -670 205 -60 11 -130 25 -155
30 -25 5 -90 14 -145 20 -316 33 -529 37 -790 14z m1190 -170 c65 -12 81 -24
103 -75 17 -42 18 -51 6 -56 -26 -10 -88 12 -100 36 -21 41 -30 44 -61 22 -23
-18 -37 -20 -76 -15 -64 9 -62 18 13 72 30 22 52 31 65 27 11 -3 34 -8 50 -11z
m227 -29 c31 -5 37 -10 43 -38 4 -18 9 -40 11 -49 4 -15 -1 -18 -28 -18 -40 0
-56 11 -97 64 -41 52 -41 67 2 55 17 -4 49 -11 69 -14z m-1040 -142 l3 -118
55 0 55 0 3 118 3 118 102 -3 102 -3 3 -309 c2 -224 -1 -312 -9 -323 -9 -10
-34 -13 -103 -11 l-91 3 -5 135 -5 135 -55 0 -55 0 -5 -135 -5 -135 -94 -3
c-69 -2 -97 1 -103 10 -9 15 -11 598 -2 622 5 13 24 16 105 16 l98 0 3 -117z
m828 20 c60 -19 102 -46 139 -89 41 -46 41 -97 1 -282 -34 -159 -43 -188 -73
-220 -83 -89 -305 -74 -421 28 -64 57 -69 105 -27 300 13 58 27 122 31 144 14
68 69 123 137 136 50 10 157 2 213 -17z m-1941 -93 c54 -15 89 -56 115 -133 5
-14 -7 -24 -62 -48 -108 -49 -115 -49 -141 5 -12 25 -31 48 -42 51 -21 7 -67
-17 -75 -40 -5 -13 11 -71 39 -135 9 -19 23 -52 32 -72 8 -21 22 -57 31 -80
30 -87 62 -107 112 -72 26 18 28 47 7 88 -30 57 -23 68 68 104 45 17 88 32 94
32 15 0 43 -85 43 -131 0 -94 -72 -170 -202 -216 -105 -37 -185 -33 -245 13
-31 23 -73 89 -73 113 0 6 -11 34 -24 63 -84 187 -93 243 -51 314 61 104 255
178 374 144z m2466 -89 l90 -47 0 -80 c0 -43 -4 -133 -8 -199 -6 -78 -5 -116
1 -110 5 6 40 69 76 140 96 186 79 174 175 125 45 -22 81 -46 81 -53 0 -15
-269 -549 -285 -565 -2 -2 -46 18 -99 44 l-96 49 6 130 c3 71 10 159 15 195 4
36 5 68 1 72 -4 4 -43 -63 -87 -148 -44 -86 -84 -158 -88 -161 -9 -6 -131 52
-159 75 -16 13 -9 31 91 226 60 116 125 244 145 284 20 39 40 72 44 71 4 0 48
-22 97 -48z m-3045 -219 c38 -20 179 -219 227 -320 42 -88 22 -154 -70 -238
-92 -84 -204 -127 -276 -105 -60 18 -88 46 -176 181 -106 163 -115 180 -115
230 0 83 77 175 197 237 78 39 156 45 213 15z m3765 -217 c28 -13 76 -47 108
-75 111 -100 138 -189 82 -271 -16 -23 -35 -43 -42 -46 -11 -4 -153 102 -153
114 0 3 11 18 25 35 14 16 25 37 25 46 0 26 -41 62 -71 62 -23 0 -46 -22 -141
-135 -62 -75 -116 -144 -120 -155 -5 -14 0 -27 15 -44 38 -42 58 -41 102 4
l39 40 -22 16 c-30 21 -28 43 11 87 l33 39 97 -83 c90 -77 112 -108 87 -124
-5 -3 -43 -45 -82 -93 -101 -121 -120 -142 -129 -142 -19 0 -124 103 -124 122
0 16 -11 24 -43 34 -57 16 -114 57 -146 103 -32 45 -34 106 -7 159 15 29 245
312 254 312 1 0 20 7 42 15 48 18 93 12 160 -20z m-4323 -132 c24 -26 72 -79
108 -118 112 -123 227 -250 254 -282 l26 -31 -77 -67 -77 -68 -40 44 c-23 25
-63 68 -89 97 -26 28 -53 52 -60 52 -7 0 -28 -16 -47 -35 l-34 -35 30 -32
c105 -114 144 -161 143 -171 -1 -16 -125 -127 -142 -127 -7 0 -56 48 -107 106
-51 58 -98 111 -104 117 -6 7 -54 59 -106 117 -52 58 -98 107 -102 108 -20 9
-3 35 59 91 37 34 72 60 77 59 6 -2 43 -37 81 -78 38 -41 75 -76 82 -78 7 -2
29 12 50 31 l37 35 -69 77 c-102 112 -100 97 -20 170 39 35 73 64 77 65 4 0
27 -21 50 -47z m789 -275 c7 -13 16 -26 21 -29 5 -3 6 -12 3 -20 -7 -17 -130
-99 -149 -99 -7 0 -21 16 -32 36 l-19 36 29 23 c16 13 41 29 55 37 14 7 32 19
39 26 20 18 40 15 53 -10z m4417 -564 c77 -135 140 -272 146 -315 12 -84 -18
-128 -129 -189 -181 -99 -269 -140 -300 -140 -48 0 -112 38 -150 90 -50 69
-176 313 -167 322 5 5 60 35 123 68 102 52 114 61 117 87 2 22 11 32 40 45 32
14 39 14 53 2 16 -14 45 -3 169 69 25 14 50 25 55 23 6 -1 25 -29 43 -62z
m-6045 -213 c110 -59 203 -109 297 -159 153 -82 184 -100 188 -111 4 -12 -61
-137 -83 -159 -10 -11 -23 -8 -76 21 -107 57 -278 148 -384 203 -55 29 -101
60 -103 68 -3 13 77 176 86 176 2 0 35 -17 75 -39z m6353 -445 c13 -44 24 -87
24 -95 0 -16 -29 -26 -255 -93 -38 -11 -106 -33 -150 -47 -77 -25 -80 -28 -83
-60 -5 -46 22 -74 62 -65 31 6 123 33 201 58 22 7 74 23 115 36 41 12 85 26
98 31 13 5 29 9 37 9 16 0 38 -45 48 -99 10 -49 23 -60 61 -54 l32 5 23 -76
c24 -81 22 -96 -12 -96 -12 0 -29 -4 -36 -9 -25 -16 -95 32 -112 77 -13 33
-19 32 -274 -47 -133 -41 -151 -44 -192 -31 -53 18 -90 46 -119 91 -72 115
-88 267 -37 347 35 54 44 57 358 154 39 11 88 27 110 34 68 23 75 18 101 -70z
m-6422 14 c66 -5 184 -17 261 -25 77 -8 147 -15 155 -15 29 0 43 -16 32 -36
-13 -26 -27 -60 -48 -117 l-17 -49 -60 4 -60 3 -18 -50 c-25 -71 -24 -79 21
-104 22 -12 42 -26 45 -30 2 -5 -9 -46 -25 -91 -17 -46 -30 -85 -30 -87 0 -19
-70 23 -284 168 -138 95 -257 177 -264 184 -11 10 -6 31 27 120 23 60 41 114
41 121 0 18 20 24 64 18 21 -2 93 -9 160 -14z m6630 -121 c9 -8 46 -114 46
-131 0 -14 -30 -9 -72 12 -23 11 -48 20 -55 20 -14 0 -36 42 -49 94 l-7 28 64
-7 c35 -4 68 -11 73 -16z m-6116 -173 c11 -11 8 -28 -15 -94 -24 -69 -31 -82
-50 -82 -31 0 -75 21 -70 34 2 6 17 46 33 89 28 77 29 77 59 71 16 -3 36 -12
43 -18z m-520 -321 c73 -8 143 -20 155 -26 75 -39 103 -110 93 -243 -16 -236
-20 -266 -30 -274 -11 -9 -169 0 -246 13 -32 5 -38 3 -43 -14 -4 -18 -13 -21
-52 -21 -38 0 -48 4 -52 20 -7 26 -30 32 -143 39 l-95 6 1 75 c4 250 34 372
103 417 42 28 113 30 309 8z m6512 -40 c80 -41 131 -192 109 -324 -12 -77 -28
-110 -69 -145 -37 -31 -63 -39 -116 -34 l-39 3 -5 85 c-3 47 -4 90 -2 97 2 6
26 14 53 18 59 8 79 37 56 83 -11 25 -17 27 -72 27 -66 -1 -242 -13 -292 -21
-59 -9 -82 -57 -46 -96 12 -14 31 -18 78 -18 74 0 75 -1 75 -122 l0 -77 -35
-7 c-68 -12 -123 4 -169 50 -57 57 -76 115 -76 233 0 162 49 227 182 244 233
29 318 30 368 4z"/>
<path d="M4926 7561 c-16 -18 -54 -170 -78 -315 -12 -66 -11 -69 11 -87 13
-11 29 -19 36 -19 26 0 57 37 65 75 4 22 13 65 20 95 18 79 29 139 36 192 6
44 5 47 -24 62 -39 20 -45 20 -66 -3z"/>
<path d="M2332 7130 c-19 -12 -32 -28 -32 -40 0 -30 206 -340 225 -340 24 0
53 18 65 40 13 25 6 39 -105 209 -46 71 -93 134 -103 140 -14 7 -27 5 -50 -9z"/>
<path d="M7075 5885 c-22 -14 -44 -27 -50 -29 -6 -2 -5 -12 3 -25 16 -27 6
-43 -40 -62 -28 -11 -32 -10 -48 12 l-18 24 -44 -24 c-24 -13 -55 -30 -70 -38
-15 -8 -30 -19 -34 -25 -10 -15 14 -53 45 -71 27 -16 30 -15 167 59 76 40 142
74 145 74 13 0 39 38 39 58 0 33 -21 72 -39 72 -9 0 -34 -12 -56 -25z"/>
<path d="M947 5283 c-6 -5 76 -63 89 -63 2 0 34 -18 69 -39 l65 -40 14 22 c8
12 16 33 18 47 3 24 -1 26 -97 46 -55 11 -112 23 -126 27 -14 4 -29 4 -32 0z"/>
<path d="M812 4629 c-29 -11 -44 -36 -40 -71 3 -32 5 -33 57 -41 58 -8 81 2
81 34 0 16 8 19 44 19 45 0 56 -10 56 -50 0 -15 11 -19 75 -25 101 -10 109 -6
102 51 -2 25 -7 48 -10 51 -14 13 -338 42 -365 32z"/>
<path d="M3985 6860 c-217 -14 -447 -60 -675 -137 -41 -13 -79 -29 -85 -34 -5
-5 -15 -9 -22 -9 -26 0 -236 -100 -353 -169 -436 -254 -788 -625 -1019 -1072
-157 -302 -248 -620 -281 -974 -19 -209 -6 -517 30 -690 6 -27 16 -75 22 -105
21 -107 85 -315 125 -410 90 -212 98 -225 146 -253 114 -67 182 -173 217 -341
6 -32 22 -70 35 -85 12 -14 44 -51 70 -81 129 -151 401 -384 561 -481 123 -75
149 -89 269 -148 131 -63 268 -117 385 -151 41 -12 86 -26 100 -30 25 -8 65
-16 213 -45 237 -45 624 -46 877 -1 148 26 289 60 395 94 124 41 369 150 470
209 168 100 297 191 420 296 179 154 408 416 431 495 25 81 64 148 123 211 54
56 79 97 141 236 50 110 119 310 140 405 64 288 74 379 74 645 0 288 -18 437
-86 690 -238 891 -962 1614 -1849 1849 -285 76 -578 104 -874 86z m475 -175
c308 -38 525 -102 795 -234 490 -241 881 -631 1129 -1129 120 -241 189 -469
238 -797 15 -104 15 -478 0 -575 -7 -41 -17 -104 -23 -140 -48 -305 -195 -670
-381 -949 -292 -437 -747 -787 -1238 -954 -175 -59 -207 -67 -395 -102 -417
-76 -894 -28 -1310 132 -313 121 -600 308 -845 553 -390 390 -623 858 -707
1420 -24 160 -24 504 0 655 31 194 52 282 106 450 106 327 304 659 544 912 63
67 207 200 263 243 146 114 274 193 449 280 268 132 504 202 810 239 115 14
440 12 565 -4z"/>
<path d="M4322 6027 c-30 -33 -83 -131 -121 -225 -61 -152 -144 -252 -249
-303 -55 -26 -203 -70 -214 -63 -21 13 -28 83 -17 186 6 59 10 136 7 170 -4
67 -34 141 -59 145 -9 2 -30 -32 -58 -90 -72 -151 -116 -207 -272 -352 -107
-99 -142 -195 -170 -465 -13 -120 -30 -162 -69 -175 -31 -10 -76 23 -88 64 -6
20 -11 134 -12 260 0 124 -2 227 -5 229 -5 6 -68 -128 -93 -198 -79 -220 -118
-466 -101 -632 17 -173 46 -277 129 -458 26 -58 51 -116 55 -130 3 -14 13 -38
20 -55 7 -16 23 -52 35 -80 33 -75 77 -143 141 -215 57 -66 57 -66 83 -190 31
-148 40 -194 56 -275 6 -33 15 -80 20 -105 4 -25 14 -74 20 -110 7 -36 18 -96
26 -135 7 -38 23 -128 34 -200 11 -71 26 -150 32 -174 39 -150 132 -238 273
-261 94 -15 570 -13 630 4 200 53 261 156 354 604 6 28 16 76 22 105 6 28 15
68 19 87 5 19 14 62 19 95 6 33 27 140 46 238 34 167 39 183 85 260 46 77 61
110 89 198 6 19 11 91 11 160 l0 124 38 50 c49 65 120 117 179 133 26 7 64 17
84 23 20 5 52 9 70 9 37 0 159 41 198 67 94 61 158 181 192 358 13 72 19 409
6 421 -3 4 -48 -18 -99 -48 -116 -69 -200 -111 -258 -127 -25 -7 -58 -17 -74
-22 -40 -12 -113 -11 -121 1 -12 20 57 124 166 250 108 126 157 209 185 317
16 64 18 239 3 315 -30 154 -42 198 -52 198 -22 -1 -75 -85 -142 -225 -37 -77
-78 -155 -92 -174 -75 -99 -265 -155 -648 -191 -66 -6 -153 -15 -194 -20 -40
-5 -80 -6 -87 -3 -25 9 -18 52 40 258 14 50 26 111 26 137 0 63 -36 198 -65
240 -11 17 -13 16 -33 -5z m-155 -1588 c129 -119 146 -129 204 -122 44 5 49 4
49 -14 0 -11 -9 -28 -20 -38 -27 -24 -25 -51 4 -70 28 -18 68 -12 105 16 13
10 27 16 32 14 13 -9 -14 -73 -46 -106 -28 -30 -29 -34 -30 -138 -1 -146 2
-161 31 -161 24 0 26 -4 26 -55 0 -14 0 -39 -1 -55 l-1 -30 -447 2 -448 3 0
65 0 65 33 3 32 3 0 129 0 129 -29 17 c-33 19 -61 62 -61 93 0 26 2 26 42 1
45 -27 59 -25 104 14 l39 35 -32 30 c-37 34 -45 58 -14 41 11 -5 38 -10 61
-10 37 0 50 7 108 58 37 31 69 59 72 62 14 14 103 90 106 90 2 0 39 -32 81
-71z m-219 -959 c76 -17 82 -26 83 -128 1 -110 13 -149 22 -72 4 30 7 78 7
105 0 28 4 55 8 62 13 20 125 47 202 47 56 0 98 -7 165 -29 58 -18 116 -30
163 -31 39 -2 76 -5 81 -8 5 -4 5 -22 0 -43 -5 -21 -13 -58 -18 -83 -5 -25
-16 -72 -25 -105 -25 -97 -54 -224 -71 -310 -9 -46 -23 -85 -33 -92 -24 -19
-108 -16 -193 7 -95 25 -150 25 -233 -1 -65 -21 -70 -21 -104 -5 -60 29 -156
32 -243 7 -79 -22 -115 -25 -169 -15 -34 7 -41 19 -58 99 -20 92 -32 149 -56
250 -13 55 -29 127 -36 160 -7 33 -17 75 -22 92 -13 46 -4 54 50 48 54 -7 103
2 217 39 86 28 154 29 263 6z m-182 -822 c4 -7 7 -33 5 -58 -3 -59 12 -72 76
-68 l48 3 3 45 c5 91 6 91 70 88 l57 -3 2 -164 c2 -109 -1 -169 -8 -178 -7 -7
-32 -13 -60 -13 -55 0 -57 3 -61 95 l-3 50 -48 3 c-65 4 -77 -8 -77 -78 0 -44
-4 -59 -16 -64 -25 -10 -92 -7 -99 4 -8 12 -7 328 0 341 9 13 103 11 111 -3z
m608 0 c92 -26 136 -84 136 -180 0 -52 -3 -62 -34 -95 -45 -50 -90 -62 -245
-70 -147 -7 -144 -9 -134 92 5 52 4 55 -21 64 -34 14 -32 40 4 53 12 4 15 20
14 69 -1 35 0 67 3 72 7 12 232 8 277 -5z"/>
<path d="M4037 4409 c-26 -23 -47 -45 -47 -50 0 -5 38 -9 85 -9 99 0 104 7 47
63 l-39 38 -46 -42z"/>
<path d="M3952 4288 c3 -22 6 -23 123 -23 117 0 120 1 123 23 3 22 2 22 -123
22 -125 0 -126 0 -123 -22z"/>
<path d="M4245 4290 c-12 -19 6 -30 51 -30 24 0 44 5 44 10 0 6 -13 10 -29 10
-17 0 -33 5 -36 10 -3 6 -10 10 -15 10 -5 0 -12 -4 -15 -10z"/>
<path d="M3868 4283 c-31 -8 -19 -24 15 -21 17 2 31 8 30 13 -2 12 -21 15 -45
8z"/>
<path d="M3767 4155 c-4 -8 -3 -16 1 -18 6 -2 610 -1 621 2 2 1 -2 8 -9 16
-18 22 -605 23 -613 0z"/>
<path d="M3930 4070 c0 -29 13 -40 25 -20 3 6 52 10 111 10 81 0 110 -4 130
-17 l26 -16 -4 34 -3 34 -142 3 -143 3 0 -31z"/>
<path d="M3736 4048 c-5 -27 -2 -189 3 -221 0 -4 34 -7 74 -5 l72 3 0 125 0
125 -72 3 -72 3 -5 -33z"/>
<path d="M4265 4067 c-3 -7 -4 -65 -3 -128 l3 -114 72 -3 c87 -3 85 -7 81 148
l-3 105 -73 3 c-54 2 -74 -1 -77 -11z"/>
<path d="M3966 4004 c-17 -17 -23 -148 -8 -172 6 -9 36 -12 113 -10 l104 3 3
83 c2 53 -1 89 -9 98 -17 21 -182 20 -203 -2z"/>
<path d="M4233 2593 c-18 -7 -17 -73 1 -73 16 0 29 -27 20 -41 -3 -5 -12 -9
-20 -9 -10 0 -14 -12 -14 -40 0 -39 1 -40 35 -40 20 0 51 7 70 15 82 34 69
163 -18 180 -17 4 -39 8 -47 10 -8 2 -21 1 -27 -2z"/>
<path d="M1577 2930 c-57 -22 -98 -52 -167 -123 -79 -80 -123 -168 -181 -357
-19 -63 -17 -268 4 -340 9 -30 19 -66 23 -80 15 -49 105 -219 147 -277 63 -85
164 -201 192 -219 22 -14 27 -14 74 13 184 103 311 255 370 444 10 35 22 81
26 102 3 20 11 37 18 37 7 0 46 -26 87 -57 134 -101 305 -205 485 -296 136
-68 412 -176 530 -207 17 -5 57 -16 90 -25 133 -36 249 -59 475 -92 147 -21
654 -24 805 -5 218 28 354 56 600 122 141 38 329 112 510 200 231 114 364 196
548 337 131 101 137 104 137 67 0 -92 51 -251 114 -358 47 -78 181 -210 252
-247 l45 -24 91 94 c50 51 113 128 140 170 55 84 132 239 143 286 35 162 37
190 26 275 -7 47 -17 101 -22 120 -6 19 -15 51 -21 70 -31 113 -82 196 -175
287 -101 98 -204 125 -313 84 -79 -30 -131 -79 -174 -163 -32 -63 -37 -83 -37
-141 0 -177 132 -366 273 -392 72 -13 118 42 118 143 0 49 -56 162 -80 162 -5
0 -18 -9 -28 -21 l-20 -20 -21 27 c-47 60 -10 134 66 134 43 0 70 -14 109 -56
66 -71 100 -190 83 -288 -20 -111 -67 -170 -152 -191 -38 -9 -42 -13 -45 -45
-7 -75 -85 -133 -146 -109 -69 27 -94 94 -61 163 l16 33 -65 66 c-68 69 -133
185 -156 280 -7 26 -16 49 -20 52 -4 2 -27 -19 -51 -48 -128 -153 -366 -372
-520 -480 -284 -198 -620 -348 -944 -423 -420 -96 -946 -84 -1330 32 -27 8
-66 19 -85 25 -19 6 -44 14 -55 19 -11 4 -49 18 -85 30 -149 52 -352 155 -530
270 -158 102 -311 232 -470 398 -72 74 -132 133 -134 131 -1 -2 -13 -31 -26
-64 -28 -70 -53 -115 -93 -170 -32 -42 -107 -115 -119 -115 -11 0 -10 -38 1
-44 16 -11 21 -67 7 -100 -45 -108 -206 -77 -206 41 0 41 -1 43 -38 53 -60 16
-103 50 -130 103 -19 40 -24 64 -24 135 0 129 48 225 137 277 46 28 75 31 108
13 52 -27 61 -76 22 -123 l-25 -30 -19 25 c-19 24 -19 24 -41 5 -44 -39 -64
-95 -64 -173 1 -85 16 -109 77 -119 54 -8 116 19 176 78 57 56 91 109 126 200
42 106 31 154 -66 299 -57 85 -80 104 -158 129 -49 16 -99 13 -154 -9z"/>
<path d="M6106 1835 c-71 -47 -156 -99 -190 -116 -33 -17 -84 -44 -113 -60
-28 -16 -93 -47 -145 -69 -51 -22 -102 -45 -113 -50 -91 -41 -317 -117 -415
-140 -19 -5 -53 -13 -75 -19 -22 -6 -94 -22 -160 -36 -731 -150 -1484 -71
-2178 229 -70 30 -153 70 -185 89 -31 18 -82 46 -112 61 -30 15 -97 54 -148
87 -51 32 -95 59 -97 59 -3 0 -17 -24 -31 -52 -72 -143 -198 -288 -311 -359
-18 -11 -33 -25 -33 -30 0 -24 382 -299 539 -388 353 -199 721 -335 1121 -416
109 -21 168 -30 370 -55 198 -24 649 -9 905 30 170 25 451 93 585 140 151 53
213 76 258 96 29 13 54 24 57 24 12 0 252 118 330 162 190 108 493 320 599
420 l21 19 -33 27 c-67 54 -162 156 -205 221 -42 62 -97 171 -97 191 0 24 -25
12 -144 -65z m93 -178 c6 -35 11 -76 11 -91 0 -15 16 -50 35 -79 19 -28 35
-54 35 -57 0 -3 -14 -14 -32 -24 l-32 -19 -28 33 c-15 19 -28 38 -28 42 0 4
-37 26 -82 48 -46 23 -87 46 -93 51 -11 11 36 59 58 59 7 0 28 -11 47 -25 36
-27 56 -24 40 5 -18 33 -12 80 13 101 36 30 44 23 56 -44z m-3975 17 l28 -25
-28 -41 -28 -40 23 -19 c32 -26 43 -24 74 11 30 33 38 35 68 20 38 -21 30 -39
-91 -200 -11 -14 -26 -34 -33 -45 -13 -17 -18 -18 -41 -7 -39 18 -42 38 -10
83 l28 41 -29 24 c-32 25 -59 19 -70 -16 -10 -33 -41 -43 -70 -24 -14 9 -25
23 -25 31 0 8 24 46 53 84 28 37 65 86 80 109 16 22 31 40 35 40 4 0 20 -12
36 -26z m3752 -141 c20 -27 17 -42 -11 -53 -14 -5 -25 -15 -25 -21 0 -7 11
-27 25 -45 14 -18 25 -36 25 -39 0 -4 15 -27 32 -52 l33 -45 -28 -24 c-16 -13
-32 -24 -37 -24 -4 0 -34 38 -65 85 -54 81 -83 103 -100 75 -9 -15 -19 -12
-44 11 l-22 21 21 23 c11 12 33 28 48 36 15 8 45 26 67 41 47 32 63 34 81 11z
m-3433 -67 c65 -47 75 -124 27 -199 -57 -89 -146 -102 -226 -33 -31 27 -37 39
-41 81 -12 138 133 230 240 151z m3246 -107 c18 -33 46 -81 62 -107 33 -53 35
-68 12 -94 -21 -23 -52 -23 -60 0 -4 9 -9 19 -12 22 -4 3 -19 30 -36 60 -16
30 -39 70 -52 89 -28 40 -29 59 -5 77 36 28 57 17 91 -47z m-3050 2 c22 -14
23 -19 19 -97 l-4 -83 22 30 c12 17 28 44 34 60 13 31 29 36 61 19 25 -14 24
-26 -6 -80 -13 -25 -41 -78 -62 -117 -20 -40 -43 -73 -50 -73 -26 0 -64 24
-68 44 -3 12 -6 55 -7 96 l-3 75 -28 -57 c-37 -73 -47 -82 -81 -67 -29 14 -31
23 -13 59 7 14 31 59 52 100 59 114 63 119 88 112 12 -3 33 -12 46 -21z m2919
-3 c22 -22 13 -47 -25 -65 -55 -27 -54 -43 2 -43 117 0 163 -84 87 -160 -39
-39 -113 -63 -134 -42 -20 20 -4 55 29 66 45 15 62 34 43 46 -8 5 -26 6 -40 3
-36 -7 -98 21 -111 51 -6 13 -8 37 -5 52 9 33 67 91 98 97 40 8 44 7 56 -5z
m-197 -117 c20 -16 24 -29 24 -70 0 -43 4 -54 33 -82 51 -50 56 -65 30 -83
-34 -24 -54 -19 -84 19 -26 35 -64 47 -64 21 0 -7 7 -30 15 -50 15 -35 15 -35
-16 -52 -41 -21 -45 -16 -97 108 -57 134 -59 143 -30 160 87 49 152 59 189 29z
m-2367 -34 c47 -27 52 -37 29 -66 l-18 -22 -40 21 c-47 24 -68 25 -99 4 -46
-30 -45 -112 1 -133 34 -16 48 3 26 35 -11 17 -12 27 -3 43 12 23 39 21 93 -6
31 -16 31 -13 -1 -103 -19 -51 -23 -55 -55 -58 -42 -4 -114 28 -151 67 -52 55
-43 155 19 210 32 28 43 31 98 31 46 0 72 -6 101 -23z m2129 -38 c16 -26 1
-47 -43 -60 -28 -9 -40 -17 -38 -28 3 -11 12 -15 28 -13 80 10 85 9 85 -23 0
-26 -5 -31 -37 -39 -27 -7 -38 -15 -38 -28 0 -21 18 -23 74 -7 43 12 56 3 56
-37 0 -21 -9 -26 -123 -65 -51 -18 -66 -7 -88 66 -11 33 -23 69 -28 80 -5 11
-14 39 -21 63 -7 23 -14 41 -16 40 -1 -2 -5 -34 -8 -73 -15 -174 -19 -203 -25
-212 -3 -5 -23 -14 -43 -20 -33 -9 -39 -8 -56 11 -11 11 -28 37 -39 56 -34 64
-94 152 -99 147 -3 -3 1 -40 10 -82 9 -43 16 -97 16 -121 0 -38 -3 -44 -25
-50 -37 -9 -53 1 -59 38 -3 18 -12 74 -21 123 -8 50 -15 97 -15 105 0 20 52
40 73 29 9 -6 18 -5 22 1 3 5 23 10 44 10 36 0 39 -3 77 -70 21 -38 42 -70 47
-70 4 0 7 38 7 85 0 95 3 100 78 109 23 3 47 8 53 11 22 14 115 44 128 42 8
-1 18 -9 24 -18z m-1872 -41 c23 -7 57 -27 76 -43 28 -24 36 -39 40 -76 7 -59
-9 -108 -48 -145 -29 -27 -35 -29 -108 -28 -72 2 -117 14 -132 36 -6 9 44 238
56 257 8 15 66 14 116 -1z m237 -57 c14 -8 10 -78 -9 -153 -13 -50 3 -80 38
-76 21 2 28 11 39 48 8 25 14 61 14 80 0 52 21 86 51 82 39 -4 47 -21 40 -85
-4 -32 -4 -60 1 -63 4 -3 8 3 8 13 0 10 11 35 25 55 33 49 112 75 173 58 46
-12 57 -29 37 -58 -12 -16 -22 -19 -59 -15 -55 7 -86 -19 -86 -71 0 -49 28
-78 81 -85 41 -6 44 -8 44 -36 0 -29 -2 -30 -49 -33 -91 -6 -142 32 -172 128
l-11 35 -17 -40 c-24 -57 -52 -83 -97 -90 -52 -9 -122 24 -139 66 -13 31 -8
141 11 212 8 31 14 37 37 37 15 0 33 -4 40 -9z m1043 -56 c14 -63 31 -201 28
-230 -4 -27 -8 -30 -44 -33 -40 -3 -41 -2 -90 72 -28 41 -52 70 -54 65 -1 -6
2 -39 9 -74 7 -35 9 -68 5 -74 -3 -6 -22 -11 -40 -11 -40 0 -36 -9 -57 158 -8
62 -11 116 -8 121 8 12 59 23 80 16 10 -3 36 -33 57 -65 53 -83 62 -81 42 10
-14 67 -8 82 33 78 26 -2 33 -8 39 -33z m-283 3 c18 -18 16 -201 -3 -237 -16
-31 -69 -61 -109 -61 -46 0 -94 26 -112 62 -12 24 -17 59 -18 133 l-1 100 40
0 40 0 5 -98 c5 -105 18 -131 60 -120 18 5 20 15 20 113 0 105 1 109 23 113
39 8 43 7 55 -5z"/>
<path d="M2426 1399 c-45 -35 -54 -112 -14 -125 49 -15 98 32 98 93 0 54 -38
68 -84 32z"/>
<path d="M5350 1167 c0 -7 6 -21 13 -31 13 -17 14 -17 30 -1 27 26 21 45 -13
45 -18 0 -30 -5 -30 -13z"/>
<path d="M3305 1051 c-3 -5 -9 -31 -14 -58 -5 -26 -13 -56 -16 -65 -9 -22 15
-33 50 -24 28 7 55 52 55 91 0 41 -57 84 -75 56z"/>
</g>
</svg>
